<?xml version="1.0" encoding="UTF-8"?>
<!-- Svg Vector Icons : http://www.onlinewebfonts.com/icon -->
<!DOCTYPE svg PUBLIC "-//W3C//DTD SVG 1.1//EN" "http://www.w3.org/Graphics/SVG/1.1/DTD/svg11.dtd">
<svg version="1.1" xmlns="http://www.w3.org/2000/svg" xmlns:xlink="http://www.w3.org/1999/xlink" x="0px" y="0px" viewBox="0 0 1000 1000" enable-background="new 0 0 1000 1000" xml:space="preserve">
<metadata> Svg Vector Icons : http://www.onlinewebfonts.com/icon </metadata>
<g><g><path d="M928.8,224.4H806.3v-61.3c0-33.8-27.4-61.3-61.3-61.3H71.3c-33.9,0-61.3,27.5-61.3,61.3v490c0,33.9,27.4,61.3,61.3,61.3h275.6l-61.3,122.5h245l-61.3-122.5h214.4v122.5c0,33.9,27.4,61.3,61.3,61.3h183.8c33.9,0,61.3-27.4,61.3-61.3V285.6C990,251.8,962.6,224.4,928.8,224.4z M71.3,591.9V163.1H745v61.3c-33.9,0-61.3,27.5-61.3,61.3v306.3H71.3z M836.9,836.9c-16.9,0-30.6-13.7-30.6-30.6s13.7-30.6,30.6-30.6s30.6,13.7,30.6,30.6S853.8,836.9,836.9,836.9z M836.9,714.4c-16.9,0-30.6-13.7-30.6-30.6s13.7-30.6,30.6-30.6s30.6,13.7,30.6,30.6S853.8,714.4,836.9,714.4z M928.8,469.4H806.3H745v-61.3h183.8V469.4z M928.8,346.9H745v-61.3h183.8V346.9z"/></g><g/><g/><g/><g/><g/><g/><g/><g/><g/><g/><g/><g/><g/><g/><g/></g>
</svg>