<?xml version="1.0" encoding="UTF-8" standalone="no"?>
<!-- Created with Inkscape (http://www.inkscape.org/) -->
<svg xmlns:dc="http://purl.org/dc/elements/1.1/" xmlns:cc="http://creativecommons.org/ns#" xmlns:rdf="http://www.w3.org/1999/02/22-rdf-syntax-ns#" xmlns:svg="http://www.w3.org/2000/svg" xmlns="http://www.w3.org/2000/svg" xmlns:sodipodi="http://sodipodi.sourceforge.net/DTD/sodipodi-0.dtd" xmlns:inkscape="http://www.inkscape.org/namespaces/inkscape" width="555.84949mm" height="609.16254mm" viewBox="0 0 555.84949 609.16254" version="1.1" id="svg4616" inkscape:version="0.92.1 r15371" sodipodi:docname="poliedro_icona_shadow.svg">
  <defs id="defs4610">
    <filter inkscape:collect="always" style="color-interpolation-filters:sRGB" id="filter4744" x="-0.15948801" width="1.318976" y="-0.1415775" height="1.283155">
      <feGaussianBlur inkscape:collect="always" stdDeviation="6.2431744" id="feGaussianBlur4746"/>
    </filter>
  </defs>
  <sodipodi:namedview id="base" pagecolor="#ffffff" bordercolor="#666666" borderopacity="1.0" inkscape:pageopacity="0.0" inkscape:pageshadow="2" inkscape:zoom="0.24748737" inkscape:cx="587.03475" inkscape:cy="1553.1908" inkscape:document-units="mm" inkscape:current-layer="layer1" showgrid="false" inkscape:window-width="2560" inkscape:window-height="1332" inkscape:window-x="0" inkscape:window-y="52" inkscape:window-maximized="1" fit-margin-top="0" fit-margin-left="0" fit-margin-right="0" fit-margin-bottom="0"/>
  <metadata id="metadata4613">
    <rdf:RDF>
      <cc:Work rdf:about="">
        <dc:format>image/svg+xml</dc:format>
        <dc:type rdf:resource="http://purl.org/dc/dcmitype/StillImage"/>
        <dc:title/>
      </cc:Work>
    </rdf:RDF>
  </metadata>
  <g inkscape:label="Layer 1" inkscape:groupmode="layer" id="layer1" transform="translate(16.633075,263.58128)">
    <g transform="matrix(4.4857144,0,0,4.4857144,-87.979936,-301.08913)" id="g23" style="opacity:0.79956897;fill:#000000;fill-opacity:1;filter:url(#filter4744)">
      <path inkscape:connector-curvature="0" style="fill:#000000;fill-opacity:1;stroke-width:0.26458332" d="m 72.362407,23.34524 -25.00577,11.228917 9.038166,27.813 h 31.903459 l 9.040812,-27.82623 z" id="path13"/>
      <path inkscape:connector-curvature="0" style="fill:#000000;fill-opacity:1;stroke-width:0.26458332" d="m 88.298262,62.387157 9.858375,30.33977 23.926273,0.0026 2.75431,-25.442287 -17.18204,-18.962688 z" id="path15"/>
      <path inkscape:connector-curvature="0" style="fill:#000000;fill-opacity:1;stroke-width:0.26458332" d="m 98.156637,92.726927 -25.810105,18.753663 5.749396,17.69798 23.267462,-4.86833 11.84804,-20.64279 z" id="path17"/>
      <path inkscape:connector-curvature="0" style="fill:#000000;fill-opacity:1;stroke-width:0.26458332" d="M 46.536428,92.726927 56.394803,62.387157 45.642137,54.574011 30.88897,70.853823 33.246408,92.726927 Z" id="path19"/>
      <path inkscape:connector-curvature="0" style="fill:#000000;fill-opacity:1;stroke-width:0.26458332" d="M 72.346532,111.48059 46.536428,92.726927 35.783762,100.54007 46.708407,119.6033 68.240199,124.11974 Z" id="path21"/>
    </g>
    <g id="g5180" transform="matrix(4.4857144,0,0,4.4857144,-87.979936,-301.08913)">
      <path id="path8" d="m 72.362407,23.34524 -25.00577,11.228917 9.038166,27.813 h 31.903459 l 9.040812,-27.82623 z" style="fill:#d93600;stroke-width:0.26458332" inkscape:connector-curvature="0"/>
      <path id="path10" d="m 88.298262,62.387157 9.858375,30.33977 23.926273,0.0026 2.75431,-25.442287 -17.18204,-18.962688 z" style="fill:#ffde1d;stroke-width:0.26458332" inkscape:connector-curvature="0"/>
      <path id="path12" d="m 98.156637,92.726927 -25.810105,18.753663 5.749396,17.69798 23.267462,-4.86833 11.84804,-20.64279 z" style="fill:#7aba36;stroke-width:0.26458332" inkscape:connector-curvature="0"/>
      <path id="path14" d="M 46.536428,92.726927 56.394803,62.387157 45.642137,54.574011 30.88897,70.853823 33.246408,92.726927 Z" style="fill:#8b62a7;stroke-width:0.26458332" inkscape:connector-curvature="0"/>
      <path id="path16" d="M 72.346532,111.48059 46.536428,92.726927 35.783762,100.54007 46.708407,119.6033 68.240199,124.11974 Z" style="fill:#01a8d9;stroke-width:0.26458332" inkscape:connector-curvature="0"/>
    </g>
  </g>
</svg>